<svg width="248" height="200" viewBox="0 0 248 200" fill="none" xmlns="http://www.w3.org/2000/svg">
<g filter="url(#filter0_d_6_85)">
<path d="M40.4014 135.306C55.9765 135.306 68.6027 117.269 68.6027 95.0185C68.6027 72.7682 55.9765 54.7308 40.4014 54.7308C24.8262 54.7308 12.2 72.7682 12.2 95.0185C12.2 117.269 24.8262 135.306 40.4014 135.306Z" fill="#21F1A6" fill-opacity="0.5"/>
<path d="M139.966 177.896C172.358 177.896 198.617 141.133 198.617 95.7845C198.617 50.4356 172.358 13.6731 139.966 13.6731C107.574 13.6731 81.3151 50.4356 81.3151 95.7845C81.3151 141.133 107.574 177.896 139.966 177.896Z" fill="#21F1A6" fill-opacity="0.5"/>
<path d="M81.2654 154.446C103.94 154.446 122.321 128.187 122.321 95.7952C122.321 63.4031 103.94 37.1441 81.2654 37.1441C58.5909 37.1441 40.2096 63.4031 40.2096 95.7952C40.2096 128.187 58.5909 154.446 81.2654 154.446Z" fill="#21F1A6" fill-opacity="0.5"/>
<path d="M230.88 95.7969C230.88 70.4727 224.891 47.7408 215.415 31.3425L214.962 30.5661C205.314 14.2647 192.724 5.20939 179.726 4.93029L179.107 4.92308C166.099 4.92311 153.457 13.7244 143.717 29.7957L143.255 30.5661C133.517 47.0195 127.335 70.0707 127.335 95.7969C127.335 121.523 133.517 144.574 143.255 161.028L143.717 161.799C153.457 177.869 166.099 186.671 179.107 186.671C192.323 186.671 205.161 177.588 214.962 161.028L215.415 160.252C224.891 143.854 230.88 121.121 230.88 95.7969ZM235.803 95.7969C235.803 121.837 229.654 145.45 219.676 162.718L219.199 163.536C208.938 180.873 194.763 191.594 179.107 191.594C163.698 191.594 149.722 181.205 139.502 164.344L139.019 163.536C128.758 146.2 122.412 122.25 122.412 95.7969C122.412 69.3434 128.758 45.3946 139.019 28.0589L139.502 27.2512C149.722 10.3889 163.698 3.94177e-05 179.107 0L179.839 0.00841346C195.204 0.33707 209.098 10.9921 219.199 28.0589L219.676 28.8762C229.655 46.1435 235.803 69.7568 235.803 95.7969Z" fill="url(#paint0_linear_6_85)"/>
</g>
<defs>
<filter id="filter0_d_6_85" x="0" y="0" width="248" height="200" filterUnits="userSpaceOnUse" color-interpolation-filters="sRGB">
<feFlood flood-opacity="0" result="BackgroundImageFix"/>
<feColorMatrix in="SourceAlpha" type="matrix" values="0 0 0 0 0 0 0 0 0 0 0 0 0 0 0 0 0 0 127 0" result="hardAlpha"/>
<feOffset dy="4"/>
<feGaussianBlur stdDeviation="2"/>
<feComposite in2="hardAlpha" operator="out"/>
<feColorMatrix type="matrix" values="0 0 0 0 0 0 0 0 0 0 0 0 0 0 0 0 0 0 0.25 0"/>
<feBlend mode="normal" in2="BackgroundImageFix" result="effect1_dropShadow_6_85"/>
<feBlend mode="normal" in="SourceGraphic" in2="effect1_dropShadow_6_85" result="shape"/>
</filter>
<linearGradient id="paint0_linear_6_85" x1="235.804" y1="93.3937" x2="134.164" y2="93.3937" gradientUnits="userSpaceOnUse">
<stop stop-color="#21F1A6"/>
<stop offset="1" stop-color="#21F1A6" stop-opacity="0"/>
</linearGradient>
</defs>
</svg>
