<svg width="340" height="80" viewBox="0 0 340 80" fill="none" xmlns="http://www.w3.org/2000/svg">
<path d="M15.1672 56.3776C21.6568 56.3776 26.9178 48.862 26.9178 39.5911C26.9178 30.3201 21.6568 22.8046 15.1672 22.8046C8.67753 22.8046 3.41663 30.3201 3.41663 39.5911C3.41663 48.862 8.67753 56.3776 15.1672 56.3776Z" fill="#21F1A6" fill-opacity="0.5"/>
<path d="M56.6525 74.1233C70.1493 74.1233 81.0905 58.8056 81.0905 39.9102C81.0905 21.0149 70.1493 5.69714 56.6525 5.69714C43.1558 5.69714 32.2146 21.0149 32.2146 39.9102C32.2146 58.8056 43.1558 74.1233 56.6525 74.1233Z" fill="#21F1A6" fill-opacity="0.5"/>
<path d="M32.1938 64.3526C41.6415 64.3526 49.3004 53.4113 49.3004 39.9146C49.3004 26.4179 41.6415 15.4767 32.1938 15.4767C22.7462 15.4767 15.0873 26.4179 15.0873 39.9146C15.0873 53.4113 22.7462 64.3526 32.1938 64.3526Z" fill="#21F1A6" fill-opacity="0.5"/>
<path d="M94.5334 39.9154C94.5334 29.3636 92.0377 19.892 88.0896 13.0594L87.9008 12.7359C83.881 5.94362 78.6349 2.17058 73.2193 2.05429L72.9614 2.05128C67.5413 2.0513 62.2739 5.7185 58.2153 12.4149L58.023 12.7359C53.9655 19.5914 51.3894 29.1961 51.3894 39.9154C51.3894 50.6346 53.9655 60.2392 58.023 67.0948L58.2153 67.4164C62.2739 74.1121 67.5414 77.7794 72.9614 77.7794C78.4681 77.7794 83.8172 73.9949 87.9008 67.0948L88.0896 66.7718C92.0378 59.9391 94.5334 50.4671 94.5334 39.9154ZM96.5847 39.9154C96.5847 50.7652 94.0227 60.6042 89.865 67.799L89.6662 68.14C85.3909 75.3639 79.4844 79.8306 72.9614 79.8307C66.5408 79.8307 60.7174 75.5019 56.459 68.4766L56.2577 68.14C51.9826 60.9167 49.3381 50.9376 49.3381 39.9154C49.3381 28.8931 51.9826 18.9144 56.2577 11.6912L56.459 11.3547C60.7174 4.32873 66.5407 1.6424e-05 72.9614 0L73.2664 0.00350561C79.6684 0.140446 85.4576 4.58003 89.6662 11.6912L89.865 12.0318C94.0227 19.2265 96.5847 29.0653 96.5847 39.9154Z" fill="url(#paint0_linear_270_2)"/>
<path d="M328.714 53.6489C326.709 53.6489 324.924 53.1957 323.358 52.2895C321.82 51.3557 320.612 50.0924 319.733 48.4995C318.854 46.8792 318.415 45.0255 318.415 42.9383C318.415 40.8236 318.841 38.9561 319.692 37.3358C320.543 35.7155 321.738 34.4522 323.276 33.5459C324.814 32.6121 326.571 32.1453 328.549 32.1453C330.608 32.1453 332.38 32.5847 333.863 33.4635C335.346 34.3148 336.486 35.5095 337.282 37.0474C338.106 38.5854 338.518 40.4254 338.518 42.5675V44.0917L321.051 44.1329L321.134 40.9197H333.533C333.533 39.5191 333.08 38.3931 332.174 37.5418C331.295 36.6904 330.1 36.2647 328.59 36.2647C327.409 36.2647 326.407 36.5119 325.583 37.0062C324.786 37.5006 324.182 38.2421 323.77 39.2307C323.358 40.2194 323.152 41.4278 323.152 42.8559C323.152 45.0529 323.619 46.7144 324.553 47.8404C325.514 48.9664 326.928 49.5294 328.796 49.5294C330.169 49.5294 331.295 49.2685 332.174 48.7467C333.08 48.2249 333.671 47.4834 333.945 46.5222H338.6C338.161 48.7467 337.062 50.4906 335.305 51.7539C333.574 53.0172 331.377 53.6489 328.714 53.6489Z" fill="white"/>
<path d="M304.256 53.1132L296.182 32.7631H301.538L305.08 42.1142C305.52 43.3226 305.891 44.4349 306.193 45.451C306.522 46.4397 306.756 47.2087 306.893 47.7579C307.03 47.1263 307.264 46.3161 307.593 45.3274C307.95 44.3113 308.348 43.2402 308.788 42.1142L312.495 32.7631H317.686L309.2 53.1132H304.256Z" fill="white"/>
<path d="M282.781 53.6489C280.639 53.6489 278.936 53.0721 277.673 51.9187C276.437 50.7378 275.819 49.1999 275.819 47.3049C275.819 45.4374 276.464 43.9544 277.755 42.8559C279.073 41.7299 280.941 41.0708 283.358 40.8785L289.454 40.3842V39.9311C289.454 38.9973 289.276 38.2558 288.919 37.7065C288.589 37.1298 288.109 36.7179 287.477 36.4707C286.845 36.1961 286.104 36.0588 285.253 36.0588C283.77 36.0588 282.63 36.3608 281.833 36.965C281.037 37.5418 280.639 38.3657 280.639 39.4367H276.355C276.355 37.9537 276.725 36.6767 277.467 35.6056C278.236 34.5071 279.307 33.6557 280.68 33.0515C282.081 32.4474 283.687 32.1453 285.5 32.1453C287.34 32.1453 288.919 32.4748 290.237 33.1339C291.555 33.7656 292.571 34.7268 293.286 36.0176C294 37.2809 294.357 38.86 294.357 40.7549V53.1133H289.949L289.578 50.1061C289.139 51.1497 288.287 52.0011 287.024 52.6602C285.788 53.3193 284.374 53.6489 282.781 53.6489ZM284.387 49.859C285.953 49.859 287.189 49.4196 288.095 48.5407C289.029 47.6619 289.496 46.4398 289.496 44.8744V43.8034L285.253 44.1329C283.687 44.2702 282.575 44.5998 281.916 45.1216C281.257 45.6159 280.927 46.275 280.927 47.0989C280.927 48.0052 281.229 48.6918 281.833 49.1587C282.438 49.6255 283.289 49.859 284.387 49.859Z" fill="white"/>
<path d="M249.354 53.1132L242.763 32.7631H247.995L250.672 41.4963C250.892 42.2928 251.112 43.1304 251.331 44.0092C251.551 44.888 251.743 45.808 251.908 46.7692C252.045 46.1101 252.169 45.5059 252.279 44.9567C252.416 44.4074 252.567 43.8719 252.732 43.3501C252.897 42.8008 253.089 42.1829 253.309 41.4963L256.11 32.7631H261.218L263.937 41.4963C263.992 41.6886 264.074 42.0181 264.184 42.485C264.321 42.9244 264.459 43.405 264.596 43.9268C264.733 44.4486 264.857 44.9704 264.967 45.4922C265.104 45.9865 265.2 46.4122 265.255 46.7692C265.365 46.2474 265.502 45.657 265.667 44.9979C265.832 44.3388 265.997 43.7071 266.161 43.1029C266.354 42.4713 266.505 41.9357 266.615 41.4963L269.333 32.7631H274.647L267.603 53.1132H262.907L260.106 44.2976C259.694 42.9519 259.364 41.8122 259.117 40.8784C258.87 39.9172 258.705 39.1757 258.623 38.6539C258.54 39.1482 258.389 39.8073 258.17 40.6312C257.95 41.4551 257.579 42.7047 257.057 44.38L254.256 53.1132H249.354Z" fill="white"/>
<path d="M240.858 32.6808V37.3358H239.005C237.165 37.3358 235.723 37.8301 234.679 38.8188C233.636 39.78 233.114 41.2493 233.114 43.2266V53.1133H228.088V32.8043H232.826L233.237 37.0062H232.743C233.018 35.6605 233.663 34.562 234.679 33.7106C235.695 32.8593 237.014 32.4336 238.634 32.4336C238.991 32.4336 239.348 32.4473 239.705 32.4748C240.062 32.5023 240.447 32.5709 240.858 32.6808Z" fill="white"/>
<path d="M214.262 53.6489C212.257 53.6489 210.472 53.1957 208.906 52.2895C207.368 51.3557 206.16 50.0924 205.281 48.4995C204.402 46.8792 203.963 45.0255 203.963 42.9383C203.963 40.8236 204.389 38.9561 205.24 37.3358C206.091 35.7155 207.286 34.4522 208.824 33.5459C210.362 32.6121 212.119 32.1453 214.097 32.1453C216.157 32.1453 217.928 32.5847 219.411 33.4635C220.894 34.3148 222.034 35.5095 222.83 37.0474C223.654 38.5854 224.066 40.4254 224.066 42.5675V44.0917L206.599 44.1329L206.682 40.9197H219.081C219.081 39.5191 218.628 38.3931 217.722 37.5418C216.843 36.6904 215.648 36.2647 214.138 36.2647C212.957 36.2647 211.955 36.5119 211.131 37.0062C210.334 37.5006 209.73 38.2421 209.318 39.2307C208.906 40.2194 208.7 41.4278 208.7 42.8559C208.7 45.0529 209.167 46.7144 210.101 47.8404C211.062 48.9664 212.476 49.5294 214.344 49.5294C215.717 49.5294 216.843 49.2685 217.722 48.7467C218.628 48.2249 219.219 47.4834 219.493 46.5222H224.148C223.709 48.7467 222.61 50.4906 220.853 51.7539C219.123 53.0172 216.925 53.6489 214.262 53.6489Z" fill="white"/>
<path d="M179.652 62.5469V32.7632H184.307L184.637 35.8528C185.241 34.6719 186.175 33.7656 187.438 33.1339C188.701 32.4748 190.088 32.1453 191.599 32.1453C193.549 32.1453 195.224 32.5847 196.624 33.4635C198.053 34.3423 199.165 35.5644 199.961 37.1298C200.758 38.6952 201.156 40.549 201.156 42.6911C201.156 44.8058 200.785 46.687 200.044 48.3348C199.302 49.9826 198.217 51.2871 196.789 52.2483C195.389 53.182 193.672 53.6489 191.64 53.6489C190.129 53.6489 188.743 53.3605 187.479 52.7838C186.243 52.2071 185.31 51.4106 184.678 50.3945V62.5469H179.652ZM184.719 42.9383C184.719 44.1466 184.953 45.2177 185.419 46.1514C185.886 47.0852 186.545 47.8267 187.397 48.376C188.276 48.8978 189.292 49.1587 190.445 49.1587C191.626 49.1587 192.642 48.8978 193.494 48.376C194.345 47.8267 194.99 47.0852 195.43 46.1514C195.869 45.2177 196.089 44.1466 196.089 42.9383C196.089 41.7299 195.869 40.6588 195.43 39.7251C194.99 38.7913 194.345 38.0636 193.494 37.5418C192.642 36.9925 191.626 36.7179 190.445 36.7179C189.292 36.7179 188.276 36.9788 187.397 37.5006C186.545 38.0224 185.886 38.7501 185.419 39.6839C184.953 40.6176 184.719 41.7024 184.719 42.9383Z" fill="white"/>
<path d="M160.855 32.7631L167.488 51.5478L164.769 56.6972L155.541 32.7631H160.855ZM156.077 62.5468V58.3861H159.084C159.743 58.3861 160.32 58.3038 160.814 58.139C161.308 58.0017 161.748 57.727 162.132 57.3151C162.544 56.9031 162.888 56.2989 163.162 55.5025L171.607 32.7631H176.798L166.828 57.6446C166.087 59.5121 165.153 60.8716 164.027 61.7229C162.901 62.5743 161.501 62.9999 159.825 62.9999C159.111 62.9999 158.438 62.9588 157.807 62.8764C157.203 62.8214 156.626 62.7116 156.077 62.5468Z" fill="white"/>
<path d="M133.329 53.1133H128.056V23H133.329V35.482H146.676V23H151.949V53.1133H146.676V40.343H133.329V53.1133Z" fill="white"/>
<defs>
<linearGradient id="paint0_linear_270_2" x1="96.5849" y1="38.9141" x2="54.2348" y2="38.9141" gradientUnits="userSpaceOnUse">
<stop stop-color="#21F1A6"/>
<stop offset="1" stop-color="#21F1A6" stop-opacity="0"/>
</linearGradient>
</defs>
</svg>
