<svg width="240" height="252" viewBox="0 0 240 252" fill="none" xmlns="http://www.w3.org/2000/svg">
<path d="M36.4014 135.306C51.9765 135.306 64.6027 117.269 64.6027 95.0185C64.6027 72.7682 51.9765 54.7308 36.4014 54.7308C20.8262 54.7308 8.2 72.7682 8.2 95.0185C8.2 117.269 20.8262 135.306 36.4014 135.306Z" fill="#21F1A6" fill-opacity="0.5"/>
<path d="M135.966 177.896C168.358 177.896 194.617 141.133 194.617 95.7845C194.617 50.4356 168.358 13.6731 135.966 13.6731C103.574 13.6731 77.3151 50.4356 77.3151 95.7845C77.3151 141.133 103.574 177.896 135.966 177.896Z" fill="#21F1A6" fill-opacity="0.5"/>
<path d="M77.2654 154.446C99.9398 154.446 118.321 128.187 118.321 95.7952C118.321 63.4031 99.9398 37.1441 77.2654 37.1441C54.5909 37.1441 36.2096 63.4031 36.2096 95.7952C36.2096 128.187 54.5909 154.446 77.2654 154.446Z" fill="#21F1A6" fill-opacity="0.5"/>
<path d="M226.88 95.7969C226.88 70.4727 220.891 47.7408 211.415 31.3425L210.962 30.5661C201.314 14.2647 188.724 5.20939 175.726 4.93029L175.107 4.92308C162.099 4.92311 149.457 13.7244 139.717 29.7957L139.255 30.5661C129.517 47.0195 123.335 70.0707 123.335 95.7969C123.335 121.523 129.517 144.574 139.255 161.028L139.717 161.799C149.457 177.869 162.099 186.671 175.107 186.671C188.323 186.671 201.161 177.588 210.962 161.028L211.415 160.252C220.891 143.854 226.88 121.121 226.88 95.7969ZM231.803 95.7969C231.803 121.837 225.654 145.45 215.676 162.718L215.199 163.536C204.938 180.873 190.763 191.594 175.107 191.594C159.698 191.594 145.722 181.205 135.502 164.344L135.019 163.536C124.758 146.2 118.412 122.25 118.412 95.7969C118.412 69.3434 124.758 45.3946 135.019 28.0589L135.502 27.2512C145.722 10.3889 159.698 3.94177e-05 175.107 0L175.839 0.00841346C191.204 0.33707 205.098 10.9921 215.199 28.0589L215.676 28.8762C225.655 46.1435 231.803 69.7568 231.803 95.7969Z" fill="url(#paint0_linear_6_67)"/>
<path d="M205.842 243.584C204.038 243.584 202.431 243.176 201.022 242.36C199.638 241.52 198.551 240.383 197.76 238.95C196.969 237.491 196.573 235.823 196.573 233.944C196.573 232.041 196.956 230.36 197.723 228.902C198.489 227.444 199.564 226.307 200.948 225.491C202.332 224.651 203.914 224.231 205.694 224.231C207.548 224.231 209.142 224.626 210.477 225.417C211.811 226.183 212.837 227.259 213.554 228.643C214.295 230.027 214.666 231.683 214.666 233.611V234.983L198.946 235.02L199.02 232.128H210.18C210.18 230.867 209.772 229.854 208.956 229.088C208.165 228.321 207.09 227.938 205.731 227.938C204.668 227.938 203.766 228.161 203.024 228.606C202.308 229.05 201.764 229.718 201.393 230.608C201.022 231.497 200.837 232.585 200.837 233.87C200.837 235.848 201.257 237.343 202.098 238.356C202.963 239.37 204.236 239.876 205.916 239.876C207.152 239.876 208.165 239.642 208.956 239.172C209.772 238.702 210.304 238.035 210.551 237.17H214.74C214.345 239.172 213.356 240.742 211.774 241.879C210.217 243.015 208.24 243.584 205.842 243.584Z" fill="white"/>
<path d="M183.831 243.102L176.564 224.787H181.384L184.572 233.203C184.968 234.29 185.301 235.291 185.573 236.206C185.87 237.096 186.08 237.788 186.204 238.282C186.327 237.714 186.537 236.985 186.834 236.095C187.155 235.18 187.514 234.216 187.909 233.203L191.246 224.787H195.917L188.28 243.102H183.831Z" fill="white"/>
<path d="M164.503 243.584C162.575 243.584 161.042 243.065 159.905 242.027C158.793 240.964 158.237 239.58 158.237 237.874C158.237 236.194 158.818 234.859 159.98 233.87C161.166 232.857 162.847 232.264 165.022 232.091L170.509 231.646V231.238C170.509 230.398 170.348 229.73 170.027 229.236C169.73 228.717 169.298 228.346 168.729 228.124C168.161 227.876 167.493 227.753 166.727 227.753C165.393 227.753 164.367 228.025 163.65 228.569C162.933 229.088 162.575 229.829 162.575 230.793H158.719C158.719 229.458 159.053 228.309 159.72 227.345C160.412 226.356 161.376 225.59 162.612 225.046C163.872 224.503 165.318 224.231 166.95 224.231C168.606 224.231 170.027 224.527 171.213 225.121C172.4 225.689 173.314 226.554 173.957 227.716C174.6 228.853 174.921 230.274 174.921 231.979V243.102H170.954L170.62 240.396C170.225 241.335 169.458 242.101 168.321 242.694C167.209 243.287 165.936 243.584 164.503 243.584ZM165.949 240.173C167.358 240.173 168.47 239.778 169.285 238.987C170.126 238.196 170.546 237.096 170.546 235.687V234.723L166.727 235.02C165.318 235.143 164.317 235.44 163.724 235.909C163.131 236.354 162.834 236.948 162.834 237.689C162.834 238.505 163.106 239.123 163.65 239.543C164.194 239.963 164.96 240.173 165.949 240.173Z" fill="white"/>
<path d="M134.419 243.102L128.486 224.787H133.195L135.605 232.647C135.803 233.364 136 234.117 136.198 234.908C136.396 235.699 136.569 236.527 136.717 237.392C136.841 236.799 136.952 236.255 137.051 235.761C137.174 235.267 137.31 234.785 137.459 234.315C137.607 233.821 137.78 233.265 137.978 232.647L140.499 224.787H145.096L147.543 232.647C147.593 232.82 147.667 233.116 147.766 233.537C147.889 233.932 148.013 234.365 148.136 234.834C148.26 235.304 148.371 235.773 148.47 236.243C148.594 236.688 148.68 237.071 148.73 237.392C148.828 236.923 148.952 236.391 149.1 235.798C149.249 235.205 149.397 234.636 149.545 234.093C149.718 233.524 149.854 233.042 149.953 232.647L152.4 224.787H157.183L150.843 243.102H146.616L144.095 235.168C143.724 233.957 143.428 232.931 143.205 232.091C142.983 231.226 142.835 230.558 142.76 230.089C142.686 230.533 142.55 231.127 142.353 231.868C142.155 232.61 141.821 233.734 141.352 235.242L138.83 243.102H134.419Z" fill="white"/>
<path d="M126.773 224.713V228.902H125.104C123.448 228.902 122.151 229.347 121.211 230.237C120.272 231.102 119.802 232.424 119.802 234.204V243.102H115.279V224.824H119.543L119.914 228.606H119.469C119.716 227.394 120.297 226.406 121.211 225.64C122.126 224.873 123.312 224.49 124.771 224.49C125.092 224.49 125.413 224.503 125.735 224.527C126.056 224.552 126.402 224.614 126.773 224.713Z" fill="white"/>
<path d="M102.835 243.584C101.031 243.584 99.4244 243.176 98.0156 242.36C96.6315 241.52 95.5439 240.383 94.753 238.95C93.962 237.491 93.5666 235.823 93.5666 233.944C93.5666 232.041 93.9497 230.36 94.7159 228.902C95.4821 227.444 96.5573 226.307 97.9414 225.491C99.3256 224.651 100.907 224.231 102.687 224.231C104.541 224.231 106.135 224.626 107.47 225.417C108.804 226.183 109.83 227.259 110.547 228.643C111.289 230.027 111.659 231.683 111.659 233.611V234.983L95.9394 235.02L96.0135 232.128H107.173C107.173 230.867 106.765 229.854 105.95 229.088C105.159 228.321 104.084 227.938 102.724 227.938C101.661 227.938 100.759 228.161 100.018 228.606C99.3009 229.05 98.7571 229.718 98.3863 230.608C98.0156 231.497 97.8302 232.585 97.8302 233.87C97.8302 235.848 98.2504 237.343 99.0908 238.356C99.9559 239.37 101.229 239.876 102.91 239.876C104.145 239.876 105.159 239.642 105.95 239.172C106.765 238.702 107.297 238.035 107.544 237.17H111.733C111.338 239.172 110.349 240.742 108.767 241.879C107.21 243.015 105.233 243.584 102.835 243.584Z" fill="white"/>
<path d="M71.687 251.592V224.787H75.8765L76.1731 227.567C76.7168 226.505 77.5572 225.689 78.6942 225.121C79.8312 224.527 81.0794 224.231 82.4388 224.231C84.1937 224.231 85.7014 224.626 86.962 225.417C88.2472 226.208 89.2483 227.308 89.9651 228.717C90.6818 230.126 91.0402 231.794 91.0402 233.722C91.0402 235.625 90.7066 237.318 90.0392 238.801C89.3719 240.284 88.3955 241.458 87.1103 242.323C85.8497 243.164 84.3049 243.584 82.4759 243.584C81.1164 243.584 79.8682 243.324 78.7313 242.805C77.619 242.286 76.7786 241.57 76.2102 240.655V251.592H71.687ZM76.2472 233.944C76.2472 235.032 76.4573 235.996 76.8775 236.836C77.2977 237.677 77.8909 238.344 78.6571 238.838C79.4481 239.308 80.3626 239.543 81.4007 239.543C82.4635 239.543 83.378 239.308 84.1442 238.838C84.9105 238.344 85.4913 237.677 85.8868 236.836C86.2822 235.996 86.48 235.032 86.48 233.944C86.48 232.857 86.2822 231.893 85.8868 231.053C85.4913 230.212 84.9105 229.557 84.1442 229.088C83.378 228.593 82.4635 228.346 81.4007 228.346C80.3626 228.346 79.4481 228.581 78.6571 229.05C77.8909 229.52 77.2977 230.175 76.8775 231.015C76.4573 231.856 76.2472 232.832 76.2472 233.944Z" fill="white"/>
<path d="M54.7697 224.787L60.7388 241.693L58.2918 246.327L49.987 224.787H54.7697ZM50.469 251.592V247.848H53.1755C53.7687 247.848 54.2877 247.773 54.7326 247.625C55.1775 247.502 55.573 247.254 55.919 246.884C56.2898 246.513 56.5987 245.969 56.8459 245.252L64.4463 224.787H69.1178L60.1456 247.18C59.4782 248.861 58.6379 250.084 57.6245 250.851C56.6111 251.617 55.3505 252 53.8428 252C53.2002 252 52.5946 251.963 52.0261 251.889C51.4824 251.839 50.9633 251.74 50.469 251.592Z" fill="white"/>
<path d="M29.9956 243.102H25.25V216H29.9956V227.234H42.008V216H46.7536V243.102H42.008V231.609H29.9956V243.102Z" fill="white"/>
<defs>
<linearGradient id="paint0_linear_6_67" x1="231.804" y1="93.3937" x2="130.164" y2="93.3937" gradientUnits="userSpaceOnUse">
<stop stop-color="#21F1A6"/>
<stop offset="1" stop-color="#21F1A6" stop-opacity="0"/>
</linearGradient>
</defs>
</svg>
