<svg width="80" height="80" viewBox="0 0 80 80" fill="none" xmlns="http://www.w3.org/2000/svg">
<g clip-path="url(#clip0_1597_1056)">
<path d="M13.3754 52.2833C18.2427 52.2833 22.1883 46.6466 22.1883 39.6934C22.1883 32.7402 18.2427 27.1035 13.3754 27.1035C8.50818 27.1035 4.5625 32.7402 4.5625 39.6934C4.5625 46.6466 8.50818 52.2833 13.3754 52.2833Z" fill="url(#paint0_linear_1597_1056)"/>
<path d="M44.4893 65.5926C54.6119 65.5926 62.8178 54.1043 62.8178 39.9328C62.8178 25.7612 54.6119 14.2729 44.4893 14.2729C34.3668 14.2729 26.1609 25.7612 26.1609 39.9328C26.1609 54.1043 34.3668 65.5926 44.4893 65.5926Z" fill="url(#paint1_linear_1597_1056)"/>
<path d="M26.1454 58.2643C33.2311 58.2643 38.9753 50.0584 38.9753 39.9359C38.9753 29.8134 33.2311 21.6074 26.1454 21.6074C19.0596 21.6074 13.3154 29.8134 13.3154 39.9359C13.3154 50.0584 19.0596 58.2643 26.1454 58.2643Z" fill="url(#paint2_linear_1597_1056)"/>
<path d="M72.9001 39.9365C72.9001 32.0227 71.0284 24.919 68.0673 19.7945L67.9257 19.5519C64.9108 14.4577 60.9762 11.6279 56.9146 11.5407L56.7211 11.5385C52.656 11.5385 48.7054 14.2889 45.6616 19.3111L45.5173 19.5519C42.4742 24.6936 40.5421 31.8971 40.5421 39.9365C40.5421 47.9759 42.4742 55.1794 45.5173 60.3211L45.6616 60.5623C48.7054 65.5841 52.6561 68.3346 56.7211 68.3346C60.8511 68.3345 64.863 65.4961 67.9257 60.3211L68.0673 60.0789C71.0284 54.9543 72.9001 47.8504 72.9001 39.9365ZM74.4386 39.9365C74.4386 48.0739 72.5171 55.4531 69.3988 60.8492L69.2497 61.105C66.0432 66.5229 61.6133 69.873 56.7211 69.873C51.9056 69.873 47.5381 66.6264 44.3443 61.3574L44.1933 61.105C40.987 55.6875 39.0037 48.2032 39.0037 39.9365C39.0037 31.6698 40.987 24.1858 44.1933 18.7684L44.3443 18.516C47.5381 13.2465 51.9056 10 56.7211 10L56.9499 10.0026C61.7514 10.1053 66.0933 13.435 69.2497 18.7684L69.3988 19.0238C72.5171 24.4198 74.4386 31.799 74.4386 39.9365Z" fill="url(#paint3_linear_1597_1056)"/>
</g>
<defs>
<linearGradient id="paint0_linear_1597_1056" x1="22.1883" y1="39.6934" x2="4.5625" y2="39.6934" gradientUnits="userSpaceOnUse">
<stop stop-color="#A43AFF"/>
<stop offset="1" stop-color="#A43AFF" stop-opacity="0"/>
</linearGradient>
<linearGradient id="paint1_linear_1597_1056" x1="62.8178" y1="39.9328" x2="26.1609" y2="39.9328" gradientUnits="userSpaceOnUse">
<stop stop-color="#A43AFF"/>
<stop offset="1" stop-color="#A43AFF" stop-opacity="0"/>
</linearGradient>
<linearGradient id="paint2_linear_1597_1056" x1="38.9753" y1="39.9359" x2="13.3154" y2="39.9359" gradientUnits="userSpaceOnUse">
<stop stop-color="#A43AFF"/>
<stop offset="1" stop-color="#A43AFF" stop-opacity="0"/>
</linearGradient>
<linearGradient id="paint3_linear_1597_1056" x1="74.4387" y1="39.1855" x2="42.6762" y2="39.1855" gradientUnits="userSpaceOnUse">
<stop stop-color="#A43AFF"/>
<stop offset="1" stop-color="#A43AFF" stop-opacity="0"/>
</linearGradient>
<clipPath id="clip0_1597_1056">
<rect width="80" height="80" fill="white"/>
</clipPath>
</defs>
</svg>
